<svg width="270" height="127" viewBox="0 0 270 127" fill="none" xmlns="http://www.w3.org/2000/svg">
  <g clip-path="url(#clip0_3_593)">
    <path d="M3.51683 0.171509C1.49026 0.716837 0 2.56392 0 4.76282V4.83759H3.51683V0.171509Z" fill="#979797"/>
    <path d="M121.647 0H4.76068C4.32987 0 3.91224 0.0615694 3.5166 0.171515V4.83759H126.412V4.76283C126.412 2.13294 124.28 0 121.651 0H121.647Z" fill="#979797"/>
    <path d="M0 4.83765V27.2665C0 29.4654 1.49026 31.3125 3.51683 31.8622V4.83765H0Z" fill="#979797"/>
    <path d="M3.5166 31.8622C3.91224 31.9677 4.32987 32.0337 4.76068 32.0337H121.647C124.276 32.0337 126.408 29.9008 126.408 27.2709V4.83765H3.5166V31.8622Z" fill="#D6D6D6"/>
    <path d="M142.322 3.78656C142.871 1.75917 144.718 0.268311 146.916 0.268311H146.99V3.78656H142.326H142.322Z" fill="#77B4DA"/>
    <path d="M142.15 121.965V5.0312C142.15 4.60022 142.212 4.18242 142.322 3.78662H146.986V126.732H146.911C144.282 126.732 142.15 124.599 142.15 121.969V121.965Z" fill="#77B4DA"/>
    <path d="M146.986 0.268311H169.406C171.604 0.268311 173.45 1.75917 173.999 3.78656H146.986V0.268311Z" fill="#77B4DA"/>
    <path d="M173.999 3.7865C174.105 4.1823 174.171 4.60009 174.171 5.03108V121.964C174.171 124.594 172.039 126.727 169.41 126.727H146.99V3.7865H174.004H173.999Z" fill="#A1DBFF"/>
    <path d="M3.51683 47.6547C1.49026 48.2044 0 50.0515 0 52.2504V52.3251H3.51683V47.6591V47.6547Z" fill="#979797"/>
    <path d="M121.647 47.4832H4.76068C4.32987 47.4832 3.91224 47.5447 3.5166 47.6547V52.3207H126.412V52.246C126.412 49.6161 124.28 47.4832 121.651 47.4832H121.647Z" fill="#979797"/>
    <path d="M0 52.3208V74.7496C0 76.9485 1.49026 78.7956 3.51683 79.3454V52.3208H0Z" fill="#979797"/>
    <path d="M3.5166 79.3453C3.91224 79.4509 4.32987 79.5169 4.76068 79.5169H121.647C124.276 79.5169 126.408 77.3839 126.408 74.754V52.3252H3.5166V79.3497V79.3453Z" fill="#D6D6D6"/>
    <path d="M190.678 3.78656C191.227 1.75917 193.074 0.268311 195.272 0.268311H195.346V3.78656H190.682H190.678Z" fill="#77B4DA"/>
    <path d="M190.506 121.965V5.0312C190.506 4.60022 190.568 4.18242 190.678 3.78662H195.342V126.732H195.267C192.638 126.732 190.506 124.599 190.506 121.969V121.965Z" fill="#77B4DA"/>
    <path d="M195.342 0.268311H217.762C219.96 0.268311 221.806 1.75917 222.356 3.78656H195.342V0.268311Z" fill="#77B4DA"/>
    <path d="M222.356 3.7865C222.461 4.1823 222.527 4.60009 222.527 5.03108V121.964C222.527 124.594 220.395 126.727 217.766 126.727H195.347V3.7865H222.36H222.356Z" fill="#A1DBFF"/>
    <path d="M238.155 3.78656C238.705 1.75917 240.551 0.268311 242.749 0.268311H242.824V3.78656H238.16H238.155Z" fill="#77B4DA"/>
    <path d="M237.984 121.965V5.0312C237.984 4.60022 238.045 4.18242 238.155 3.78662H242.82V126.732H242.745C240.116 126.732 237.984 124.599 237.984 121.969V121.965Z" fill="#77B4DA"/>
    <path d="M242.819 0.268311H265.239C267.437 0.268311 269.283 1.75917 269.833 3.78656H242.819V0.268311Z" fill="#77B4DA"/>
    <path d="M269.833 3.7865C269.938 4.1823 270.004 4.60009 270.004 5.03108V121.964C270.004 124.594 267.872 126.727 265.244 126.727H242.824V3.7865H269.837H269.833Z" fill="#A1DBFF"/>
    <path d="M3.51683 95.1378C1.49026 95.6875 0 97.5346 0 99.7335V99.8083H3.51683V95.1422V95.1378Z" fill="#979797"/>
    <path d="M121.647 94.9663H4.76068C4.32987 94.9663 3.91224 95.0279 3.5166 95.1378V99.8039H126.412V99.7291C126.412 97.0992 124.28 94.9663 121.651 94.9663H121.647Z" fill="#979797"/>
    <path d="M0 99.804V122.233C0 124.432 1.49026 126.279 3.51683 126.829V99.804H0Z" fill="#979797"/>
    <path d="M3.5166 126.829C3.91224 126.934 4.32987 127 4.76068 127H121.647C124.276 127 126.408 124.867 126.408 122.237V99.8083H3.5166V126.833V126.829Z" fill="#D6D6D6"/>
  </g>
  <defs>
    <clipPath id="clip0_3_593">
      <rect width="270" height="127" fill="white"/>
    </clipPath>
  </defs>
</svg>